<?xml version="1.0" standalone="no"?>
<!DOCTYPE svg PUBLIC "-//W3C//DTD SVG 20010904//EN"
 "http://www.w3.org/TR/2001/REC-SVG-20010904/DTD/svg10.dtd">
<svg version="1.0" xmlns="http://www.w3.org/2000/svg"
 width="2000.000000pt" height="1500.000000pt" viewBox="0 0 2000.000000 1500.000000"
 preserveAspectRatio="xMidYMid meet">

<g transform="translate(0.000000,1500.000000) scale(0.100000,-0.100000)"
fill="#000000" stroke="none">
<path d="M6830 12170 c-988 -84 -1879 -448 -2640 -1078 -151 -125 -461 -436
-586 -587 -607 -736 -965 -1583 -1066 -2530 -17 -160 -17 -780 0 -940 91 -846
391 -1625 886 -2300 256 -349 609 -706 961 -971 481 -364 1073 -646 1663 -794
424 -106 792 -147 1247 -137 382 8 667 45 1023 132 345 86 603 181 947 350
315 155 575 319 835 526 l105 84 -207 3 -207 2 -83 -58 c-576 -403 -1243 -658
-1968 -753 -208 -27 -665 -37 -887 -20 -1056 83 -2033 533 -2783 1281 -970
968 -1434 2326 -1260 3687 152 1188 774 2254 1735 2975 558 419 1214 701 1900
818 285 48 382 55 765 55 398 -1 533 -13 869 -81 582 -118 1176 -372 1640
-703 l72 -51 207 2 207 3 -102 82 c-249 199 -506 362 -813 516 -124 62 -286
137 -360 166 -390 154 -799 256 -1230 307 -159 18 -711 27 -870 14z"/>
<path d="M7260 10384 c-19 -2 -91 -9 -160 -14 -163 -14 -485 -55 -678 -86 -84
-13 -194 -24 -245 -24 -163 0 -280 -46 -395 -155 -73 -69 -119 -142 -147 -235
-26 -89 -34 -330 -35 -1025 -1 -1160 20 -3686 31 -3760 27 -186 179 -362 366
-426 100 -34 250 -33 350 3 170 61 297 197 349 373 16 56 17 123 11 956 l-6
896 52 -8 c170 -25 643 -59 837 -59 436 0 857 93 1235 274 248 119 431 250
611 439 279 292 409 643 391 1053 -17 370 -152 713 -409 1036 -264 332 -599
547 -1044 672 -252 70 -480 96 -819 94 -143 0 -276 -3 -295 -4z m670 -1109
c275 -49 451 -133 592 -283 121 -129 188 -269 210 -443 11 -93 11 -96 -14
-151 -35 -75 -150 -194 -251 -259 -147 -95 -336 -165 -537 -200 -209 -37 -578
-30 -1054 22 -98 10 -181 19 -184 19 -5 0 5 1240 10 1245 6 6 408 55 528 64
178 15 586 6 700 -14z"/>
<path d="M12125 10369 c-577 -26 -1094 -238 -1443 -589 -290 -292 -422 -611
-423 -1020 0 -239 32 -409 108 -585 191 -442 681 -772 1624 -1094 615 -209
925 -337 1084 -444 89 -61 172 -148 203 -214 70 -149 1 -388 -148 -513 -230
-192 -584 -269 -1065 -230 -410 33 -609 120 -704 308 -48 95 -60 160 -71 371
-12 218 -24 271 -90 376 -103 162 -268 246 -455 232 -256 -20 -467 -204 -532
-462 -23 -93 -23 -342 1 -475 60 -345 205 -613 466 -864 309 -295 750 -482
1265 -536 154 -16 540 -13 680 5 891 117 1593 671 1746 1378 26 121 35 349 20
491 -26 237 -112 471 -229 626 -63 83 -224 238 -325 313 -307 230 -580 353
-1427 644 -386 132 -510 181 -670 265 -247 128 -342 227 -386 401 -50 192 43
357 259 462 172 82 345 111 617 101 254 -9 359 -33 569 -132 148 -70 260 -146
342 -231 75 -78 114 -147 159 -286 47 -145 107 -216 241 -287 135 -70 254 -86
393 -50 109 28 169 63 262 155 144 142 190 281 166 507 -6 62 -20 147 -31 189
-152 570 -776 1029 -1574 1159 -108 18 -399 42 -447 38 -8 -1 -91 -5 -185 -9z"/>
</g>
</svg>
